<svg version="1.0" xmlns="http://www.w3.org/2000/svg"
     width="157.000000pt" height="126.000000pt" viewBox="0 0 157.000000 126.000000"
     preserveAspectRatio="xMidYMid meet">
<metadata>
    Created by potrace 1.16, written by Peter Selinger 2001-2019
</metadata>
<g transform="translate(0.000000,126.000000) scale(0.100000,-0.100000)"
   fill="#4f46e5" stroke="none">
    <path d="M173 1048 l-132 -133 327 -376 c180 -207 347 -400 372 -429 l45 -52
373 428 372 429 -132 132 -133 133 -480 0 -480 0 -132 -132z m1200 -7 c64 -66
117 -122 117 -126 0 -4 -24 -35 -53 -69 -29 -34 -187 -216 -351 -404 l-299
-344 -27 29 c-15 15 -175 198 -355 407 l-327 378 65 67 c35 36 88 92 117 124
l53 57 472 0 472 0 116 -119z"/>
    <path d="M257 1012 c-48 -48 -87 -92 -87 -97 1 -6 25 -36 54 -68 l53 -59 6 50
c11 90 63 168 151 228 l51 34 -70 0 -70 0 -88 -88z"/>
    <path d="M637 1080 c-120 -31 -177 -103 -132 -166 33 -48 77 -57 300 -65 218
-8 273 -18 341 -60 18 -11 44 -34 56 -51 l22 -31 30 35 c17 19 59 66 93 105
l62 69 -82 82 -82 82 0 -88 0 -87 -108 -3 c-96 -3 -108 -1 -113 15 -20 70 -51
108 -106 137 -49 24 -71 29 -150 32 -51 2 -110 -1 -131 -6z"/>
    <path d="M383 670 c7 -9 37 -44 67 -78 43 -49 57 -60 65 -49 41 56 153 46 226
-20 l40 -36 97 11 c126 14 169 27 188 58 15 23 15 26 -1 44 -26 28 -90 38
-341 51 -126 6 -257 16 -291 23 -56 11 -61 11 -50 -4z"/>
    <path d="M910 418 c-30 -5 -110 -7 -177 -5 -68 3 -123 3 -123 1 0 -2 37 -46
82 -97 45 -50 84 -95 88 -100 3 -4 50 42 104 103 53 60 94 109 89 109 -4 -1
-33 -6 -63 -11z"/>
</g>
</svg>

